<svg height="30%" width="100%" id="svg" viewBox="0 0 1440 400" xmlns="http://www.w3.org/2000/svg" className="transition duration-300 ease-in-out delay-150"><defs><linearGradient id="gradient"><stop offset="5%" stop-color="#002bdc88"></stop><stop offset="95%" stop-color="#32ded488"></stop></linearGradient></defs><path d="M 0,400 C 0,400 0,133 0,133 C 171.33333333333337,122.06666666666668 342.66666666666674,111.13333333333335 517,123 C 691.3333333333333,134.86666666666665 868.6666666666665,169.53333333333333 1023,175 C 1177.3333333333335,180.46666666666667 1308.6666666666667,156.73333333333335 1440,133 C 1440,133 1440,400 1440,400 Z" stroke="none" stroke-width="0" fill="url(#gradient)" className="transition-all duration-300 ease-in-out delay-150"></path><defs><linearGradient id="gradient"><stop offset="5%" stop-color="#002bdcff"></stop><stop offset="95%" stop-color="#32ded4ff"></stop></linearGradient></defs><path d="M 0,400 C 0,400 0,266 0,266 C 173.59999999999997,238.39999999999998 347.19999999999993,210.79999999999998 521,225 C 694.8000000000001,239.20000000000002 868.8,295.2 1022,309 C 1175.2,322.8 1307.6,294.4 1440,266 C 1440,266 1440,400 1440,400 Z" stroke="none" stroke-width="0" fill="url(#gradient)" className="transition-all duration-300 ease-in-out delay-150"></path></svg>